<svg width="146" height="122" viewBox="0 0 146 122" fill="none" xmlns="http://www.w3.org/2000/svg">
<path fill-rule="evenodd" clip-rule="evenodd" d="M0 6.25002C0 2.89029 2.7236 0.166687 6.08333 0.166687H97.3333C100.693 0.166687 103.417 2.89029 103.417 6.25002V85.3334C103.417 88.6931 100.693 91.4167 97.3333 91.4167H6.08333C2.7236 91.4167 0 88.6931 0 85.3334V6.25002ZM12.1667 12.3334V79.25H91.25V12.3334H12.1667Z" fill="#8C99AA"/>
<path fill-rule="evenodd" clip-rule="evenodd" d="M91.25 36.6667C91.25 33.307 93.9736 30.5834 97.3333 30.5834H121.667C123.28 30.5834 124.827 31.2243 125.968 32.3651L144.218 50.6151C145.359 51.756 146 53.3033 146 54.9167V85.3334C146 88.6931 143.276 91.4167 139.917 91.4167H97.3333C93.9736 91.4167 91.25 88.6931 91.25 85.3334V36.6667ZM103.417 42.75V79.25H133.833V57.4365L119.147 42.75H103.417Z" fill="#8C99AA"/>
<path fill-rule="evenodd" clip-rule="evenodd" d="M33.4583 91.4167C28.4187 91.4167 24.3333 95.5021 24.3333 100.542C24.3333 105.581 28.4187 109.667 33.4583 109.667C38.4979 109.667 42.5833 105.581 42.5833 100.542C42.5833 95.5021 38.4979 91.4167 33.4583 91.4167ZM12.1667 100.542C12.1667 88.7826 21.6993 79.25 33.4583 79.25C45.2174 79.25 54.75 88.7826 54.75 100.542C54.75 112.301 45.2174 121.833 33.4583 121.833C21.6993 121.833 12.1667 112.301 12.1667 100.542Z" fill="#8C99AA"/>
<path fill-rule="evenodd" clip-rule="evenodd" d="M112.542 91.4167C107.502 91.4167 103.417 95.5021 103.417 100.542C103.417 105.581 107.502 109.667 112.542 109.667C117.581 109.667 121.667 105.581 121.667 100.542C121.667 95.5021 117.581 91.4167 112.542 91.4167ZM91.25 100.542C91.25 88.7826 100.783 79.25 112.542 79.25C124.301 79.25 133.833 88.7826 133.833 100.542C133.833 112.301 124.301 121.833 112.542 121.833C100.783 121.833 91.25 112.301 91.25 100.542Z" fill="#8C99AA"/>
</svg>
