<svg width="146" height="110" viewBox="0 0 146 110" fill="none" xmlns="http://www.w3.org/2000/svg">
<path fill-rule="evenodd" clip-rule="evenodd" d="M18.25 12.4167C14.8903 12.4167 12.1667 15.1403 12.1667 18.5V91.5C12.1667 94.8597 14.8903 97.5833 18.25 97.5833H127.75C131.11 97.5833 133.833 94.8597 133.833 91.5V18.5C133.833 15.1403 131.11 12.4167 127.75 12.4167H18.25ZM0 18.5C0 8.4208 8.1708 0.25 18.25 0.25H127.75C137.829 0.25 146 8.4208 146 18.5V91.5C146 101.579 137.829 109.75 127.75 109.75H18.25C8.1708 109.75 0 101.579 0 91.5V18.5Z" fill="#8C99AA"/>
<path fill-rule="evenodd" clip-rule="evenodd" d="M0 42.8333C0 39.4736 2.7236 36.75 6.08333 36.75H139.917C143.276 36.75 146 39.4736 146 42.8333C146 46.1931 143.276 48.9167 139.917 48.9167H6.08333C2.7236 48.9167 0 46.1931 0 42.8333Z" fill="#8C99AA"/>
</svg>
