<svg width="134" height="134" viewBox="0 0 134 134" fill="none" xmlns="http://www.w3.org/2000/svg">
<path fill-rule="evenodd" clip-rule="evenodd" d="M67 12.25C36.7624 12.25 12.25 36.7624 12.25 67C12.25 97.2376 36.7624 121.75 67 121.75C97.2376 121.75 121.75 97.2376 121.75 67C121.75 36.7624 97.2376 12.25 67 12.25ZM0.083374 67C0.083374 30.0429 30.043 0.083313 67 0.083313C103.957 0.083313 133.917 30.0429 133.917 67C133.917 103.957 103.957 133.917 67 133.917C30.043 133.917 0.083374 103.957 0.083374 67Z" fill="#8C99AA"/>
<path fill-rule="evenodd" clip-rule="evenodd" d="M67 24.4166C70.3598 24.4166 73.0834 27.1402 73.0834 30.5V63.2403L94.0539 73.7255C97.059 75.2281 98.277 78.8822 96.7745 81.8872C95.2719 84.8922 91.6179 86.1103 88.6128 84.6077L64.2795 72.4411C62.2186 71.4106 60.9167 69.3042 60.9167 67V30.5C60.9167 27.1402 63.6403 24.4166 67 24.4166Z" fill="#8C99AA"/>
</svg>
