<svg width="27" height="27" viewBox="0 0 27 27" fill="none" xmlns="http://www.w3.org/2000/svg">
<path fill-rule="evenodd" clip-rule="evenodd" d="M14.9545 1.4545C15.3938 1.01517 16.1062 1.01517 16.5455 1.4545L21.0455 5.9545C21.4848 6.39385 21.4848 7.10616 21.0455 7.5455L8.6705 19.9205C8.45952 20.1315 8.17337 20.25 7.875 20.25H3.375C2.75368 20.25 2.25 19.7463 2.25 19.125V14.625C2.25 14.3266 2.36853 14.0405 2.5795 13.8295L14.9545 1.4545ZM4.5 15.091V18H7.40901L18.659 6.75L15.75 3.84099L4.5 15.091Z" fill="#DA87A9"/>
<path fill-rule="evenodd" clip-rule="evenodd" d="M2.25 24.75C2.25 24.1287 2.75368 23.625 3.375 23.625H23.625C24.2463 23.625 24.75 24.1287 24.75 24.75C24.75 25.3713 24.2463 25.875 23.625 25.875H3.375C2.75368 25.875 2.25 25.3713 2.25 24.75Z" fill="#DA87A9"/>
</svg>
