<svg width="22" height="22" viewBox="0 0 22 22" fill="none" xmlns="http://www.w3.org/2000/svg">
<path fill-rule="evenodd" clip-rule="evenodd" d="M0 11C0 4.92487 4.92487 0 11 0C17.0751 0 22 4.92487 22 11C22 17.0751 17.0751 22 11 22C4.92487 22 0 17.0751 0 11Z" fill="#5882CD"/>
<path fill-rule="evenodd" clip-rule="evenodd" d="M16.3107 7.04291C16.7012 7.43343 16.7012 8.0666 16.3107 8.45712L10.1036 14.9571C9.71307 15.3476 9.0799 15.3476 8.68938 14.9571L5.68938 11.9571C5.29885 11.5666 5.29885 10.9334 5.68938 10.5429C6.0799 10.1524 6.71307 10.1524 7.10359 10.5429L9.39648 12.8358L14.8965 7.04291C15.287 6.65238 15.9202 6.65238 16.3107 7.04291Z" fill="white"/>
</svg>
