<svg width="27" height="28" viewBox="0 0 27 28" fill="none" xmlns="http://www.w3.org/2000/svg">
<path d="M13.0407 17.8505C11.151 17.8598 9.2976 17.3308 7.69746 16.3254C7.6047 16.2661 7.52461 16.189 7.46182 16.0986C7.39903 16.0082 7.35479 15.9062 7.33166 15.7986C7.30853 15.691 7.30696 15.5798 7.32704 15.4716C7.34713 15.3634 7.38847 15.2602 7.44868 15.168C7.50606 15.0748 7.5815 14.9939 7.67056 14.9302C7.75962 14.8665 7.86052 14.8212 7.96733 14.797C8.07413 14.7728 8.18469 14.7702 8.29252 14.7894C8.40034 14.8085 8.50325 14.849 8.59521 14.9084C9.93409 15.7255 11.4722 16.1578 13.0407 16.1578C14.6092 16.1578 16.1474 15.7255 17.4862 14.9084C17.5782 14.849 17.6811 14.8085 17.7889 14.7894C17.8968 14.7702 18.0073 14.7728 18.1141 14.797C18.2209 14.8212 18.3218 14.8665 18.4109 14.9302C18.5 14.9939 18.5754 15.0748 18.6328 15.168C18.693 15.2602 18.7343 15.3634 18.7544 15.4716C18.7745 15.5798 18.7729 15.691 18.7498 15.7986C18.7267 15.9062 18.6824 16.0082 18.6196 16.0986C18.5568 16.189 18.4768 16.2661 18.384 16.3254C16.7838 17.3308 14.9305 17.8598 13.0407 17.8505ZM15.204 19.9489L20.6122 22.1121L22.7754 23.1938V23.6048C22.7767 23.7901 22.7304 23.9726 22.6409 24.1348C22.5514 24.2971 22.4217 24.4336 22.2642 24.5313C22.1068 24.629 21.9269 24.6847 21.7418 24.6929C21.5567 24.7011 21.3725 24.6616 21.207 24.5782L14.1224 22.1121H6.43195C5.6029 22.1121 4.80781 21.7828 4.22159 21.1966C3.63537 20.6103 3.30603 19.8152 3.30603 18.9862V6.85028C3.30603 6.02124 3.63537 5.22615 4.22159 4.63993C4.80781 4.0537 5.6029 3.72437 6.43195 3.72437H19.6495C21.3801 3.72437 22.7754 5.11967 22.7754 5.76865V23.1938L20.6122 22.1121V7.20722C20.6122 7.03393 20.578 6.86234 20.5117 6.70224C20.4454 6.54214 20.3482 6.39667 20.2257 6.27413C20.1031 6.15159 19.9576 6.05439 19.7975 5.98808C19.6374 5.92176 19.4659 5.88763 19.2926 5.88763H6.78889C6.6156 5.88763 6.444 5.92176 6.2839 5.98808C6.1238 6.05439 5.97833 6.15159 5.85579 6.27413C5.73326 6.39667 5.63606 6.54214 5.56974 6.70224C5.50343 6.86234 5.4693 7.03393 5.4693 7.20722V18.6293C5.4693 19.3583 6.05987 19.9489 6.78889 19.9489H15.204Z" fill="white"/>
</svg>
