<svg width="93" height="17" viewBox="0 0 93 17" fill="none" xmlns="http://www.w3.org/2000/svg">
<path d="M8.28 1.56C9.16 1.56 9.88 1.69333 10.44 1.96C11.0133 2.21333 11.52 2.51333 11.96 2.86C12.2267 3.06 12.4267 3.08667 12.56 2.94C12.7067 2.78 12.8067 2.41333 12.86 1.84H13.32C13.2933 2.37333 13.2733 3.02667 13.26 3.8C13.2467 4.56 13.24 5.57333 13.24 6.84H12.78C12.7267 6.2 12.64 5.63333 12.52 5.14C12.4 4.63333 12.22 4.18667 11.98 3.8C11.74 3.41333 11.3933 3.07333 10.94 2.78C10.66 2.59333 10.36 2.44667 10.04 2.34C9.73333 2.23333 9.41333 2.18 9.08 2.18C8.32 2.18 7.69333 2.39333 7.2 2.82C6.70667 3.23333 6.32 3.78 6.04 4.46C5.77333 5.12667 5.58667 5.86 5.48 6.66C5.37333 7.44667 5.32 8.21333 5.32 8.96C5.32 9.70667 5.37333 10.48 5.48 11.28C5.58667 12.0667 5.77333 12.8 6.04 13.48C6.32 14.1467 6.70667 14.6933 7.2 15.12C7.69333 15.5333 8.32 15.74 9.08 15.74C9.41333 15.74 9.73333 15.6867 10.04 15.58C10.36 15.46 10.66 15.3133 10.94 15.14C11.6067 14.7267 12.0533 14.1733 12.28 13.48C12.52 12.7867 12.6867 11.8933 12.78 10.8H13.24C13.24 12.1067 13.2467 13.1667 13.26 13.98C13.2733 14.78 13.2933 15.4533 13.32 16H12.86C12.8067 15.4267 12.7133 15.0667 12.58 14.92C12.46 14.7733 12.2533 14.7933 11.96 14.98C11.4667 15.3267 10.94 15.6333 10.38 15.9C9.83333 16.1533 9.12667 16.28 8.26 16.28C6.75333 16.28 5.43333 15.9933 4.3 15.42C3.16667 14.8467 2.28667 14.02 1.66 12.94C1.03333 11.86 0.72 10.56 0.72 9.04C0.72 7.54667 1.04 6.24 1.68 5.12C2.33333 4 3.22667 3.12667 4.36 2.5C5.49333 1.87333 6.8 1.56 8.28 1.56ZM17.4559 16.14C16.8293 16.14 16.3159 16.02 15.9159 15.78C15.5159 15.54 15.2226 15.2267 15.0359 14.84C14.8626 14.4533 14.7759 14.0467 14.7759 13.62C14.7759 13.06 14.9026 12.6067 15.1559 12.26C15.4093 11.9 15.7359 11.6133 16.1359 11.4C16.5493 11.1733 16.9826 10.9867 17.4359 10.84C17.8893 10.6933 18.3159 10.5533 18.7159 10.42C19.1293 10.2733 19.4626 10.1067 19.7159 9.92C19.9693 9.72 20.0959 9.46667 20.0959 9.16V7.38C20.0959 7.16667 20.0559 6.93333 19.9759 6.68C19.9093 6.42667 19.7759 6.20667 19.5759 6.02C19.3759 5.83333 19.0759 5.74 18.6759 5.74C18.4626 5.74 18.2559 5.77333 18.0559 5.84C17.8693 5.89333 17.7026 5.97333 17.5559 6.08C18.0226 6.25333 18.3626 6.5 18.5759 6.82C18.7893 7.12667 18.8959 7.46667 18.8959 7.84C18.8959 8.37333 18.7093 8.79333 18.3359 9.1C17.9626 9.40667 17.5226 9.56 17.0159 9.56C16.4826 9.56 16.0693 9.39333 15.7759 9.06C15.4826 8.72667 15.3359 8.31333 15.3359 7.82C15.3359 7.40667 15.4359 7.06 15.6359 6.78C15.8493 6.48667 16.1626 6.22 16.5759 5.98C16.9759 5.75333 17.4559 5.59333 18.0159 5.5C18.5759 5.39333 19.1626 5.34 19.7759 5.34C20.4293 5.34 21.0359 5.40667 21.5959 5.54C22.1559 5.66 22.6359 5.92667 23.0359 6.34C23.3159 6.63333 23.4959 7 23.5759 7.44C23.6559 7.88 23.6959 8.44667 23.6959 9.14V14.5C23.6959 14.8333 23.7159 15.06 23.7559 15.18C23.8093 15.3 23.8959 15.36 24.0159 15.36C24.1226 15.36 24.2226 15.3267 24.3159 15.26C24.4226 15.1933 24.5226 15.1267 24.6159 15.06L24.8159 15.4C24.5226 15.6533 24.1559 15.84 23.7159 15.96C23.2893 16.08 22.8359 16.14 22.3559 16.14C21.7826 16.14 21.3359 16.0733 21.0159 15.94C20.7093 15.7933 20.4893 15.6067 20.3559 15.38C20.2359 15.14 20.1693 14.8867 20.1559 14.62C19.8759 15.06 19.5226 15.4267 19.0959 15.72C18.6826 16 18.1359 16.14 17.4559 16.14ZM19.3559 14.54C19.5026 14.54 19.6293 14.52 19.7359 14.48C19.8559 14.4267 19.9759 14.3333 20.0959 14.2V9.98C20.0026 10.1533 19.8759 10.3267 19.7159 10.5C19.5693 10.66 19.4159 10.8267 19.2559 11C19.0959 11.1733 18.9426 11.36 18.7959 11.56C18.6626 11.76 18.5493 11.9933 18.4559 12.26C18.3759 12.5133 18.3359 12.8133 18.3359 13.16C18.3359 13.6667 18.4293 14.0267 18.6159 14.24C18.8159 14.44 19.0626 14.54 19.3559 14.54ZM30.0409 0.359999V14.14C30.0409 14.7 30.1209 15.08 30.2809 15.28C30.4543 15.48 30.7476 15.58 31.1609 15.58V16C30.8943 15.9867 30.4943 15.9733 29.9609 15.96C29.4276 15.9333 28.8809 15.92 28.3209 15.92C27.7609 15.92 27.1943 15.9333 26.6209 15.96C26.0476 15.9733 25.6143 15.9867 25.3209 16V15.58C25.7343 15.58 26.0209 15.48 26.1809 15.28C26.3543 15.08 26.4409 14.7 26.4409 14.14V2.76C26.4409 2.16 26.3609 1.72 26.2009 1.44C26.0409 1.14667 25.7476 0.999999 25.3209 0.999999V0.579999C25.7476 0.62 26.1609 0.64 26.5609 0.64C27.2276 0.64 27.8476 0.62 28.4209 0.579999C29.0076 0.526666 29.5476 0.453332 30.0409 0.359999ZM36.6809 5.62V6.02C36.2009 6.15333 35.7143 6.38667 35.2209 6.72C34.7276 7.05333 34.2276 7.47333 33.7209 7.98L33.0209 8.68L33.1609 8.42L36.3809 14.54C36.4876 14.74 36.6009 14.94 36.7209 15.14C36.8409 15.3267 36.9943 15.4733 37.1809 15.58V16C36.9543 15.9867 36.6076 15.9733 36.1409 15.96C35.6876 15.9333 35.2276 15.92 34.7609 15.92C34.2276 15.92 33.6876 15.9333 33.1409 15.96C32.6076 15.9733 32.2076 15.9867 31.9409 16V15.58C32.2076 15.58 32.3809 15.52 32.4609 15.4C32.5543 15.28 32.5476 15.1133 32.4409 14.9L30.6809 11.18C30.5876 10.9933 30.4809 10.8733 30.3609 10.82C30.2409 10.7667 30.1009 10.74 29.9409 10.74V10.36C30.1276 10.36 30.3009 10.3467 30.4609 10.32C30.6209 10.28 30.7676 10.1933 30.9009 10.06L32.4409 8.62C32.9076 8.19333 33.1409 7.79333 33.1409 7.42C33.1543 7.03333 33.0076 6.71333 32.7009 6.46C32.4076 6.20667 32.0209 6.06 31.5409 6.02V5.62C31.9276 5.63333 32.3409 5.64667 32.7809 5.66C33.2343 5.67333 33.6209 5.68 33.9409 5.68C34.2209 5.68 34.5409 5.68 34.9009 5.68C35.2609 5.66667 35.6009 5.66 35.9209 5.66C36.2543 5.64667 36.5076 5.63333 36.6809 5.62ZM42.4983 5.34C43.6716 5.34 44.5916 5.68667 45.2583 6.38C45.9383 7.06 46.2783 8.20667 46.2783 9.82H40.0183L39.9783 9.44H43.3583C43.3716 8.78667 43.3449 8.18667 43.2783 7.64C43.2116 7.08 43.1049 6.63333 42.9583 6.3C42.8116 5.96667 42.6116 5.8 42.3583 5.8C41.9983 5.8 41.7049 6.08667 41.4783 6.66C41.2516 7.22 41.1049 8.18667 41.0383 9.56L41.1183 9.72C41.1049 9.85333 41.0983 9.98667 41.0983 10.12C41.0983 10.2533 41.0983 10.3933 41.0983 10.54C41.0983 11.4733 41.2116 12.2 41.4383 12.72C41.6783 13.24 41.9716 13.6 42.3183 13.8C42.6783 14 43.0383 14.1 43.3983 14.1C43.5849 14.1 43.8049 14.0733 44.0583 14.02C44.3249 13.9667 44.6116 13.8467 44.9183 13.66C45.2249 13.46 45.5249 13.16 45.8183 12.76L46.1583 12.88C45.9983 13.4133 45.7383 13.9467 45.3783 14.48C45.0316 15 44.5783 15.4333 44.0183 15.78C43.4583 16.1133 42.7783 16.28 41.9783 16.28C41.1249 16.28 40.3449 16.1067 39.6383 15.76C38.9449 15.4133 38.3916 14.84 37.9783 14.04C37.5649 13.24 37.3583 12.1667 37.3583 10.82C37.3583 9.54 37.5849 8.5 38.0383 7.7C38.4916 6.88667 39.1049 6.29333 39.8783 5.92C40.6649 5.53333 41.5383 5.34 42.4983 5.34ZM47.103 1.84C47.4896 1.85333 47.9963 1.86667 48.623 1.88C49.263 1.89333 49.903 1.9 50.543 1.9C51.2096 1.9 51.8496 1.89333 52.463 1.88C53.0763 1.86667 53.5096 1.86 53.763 1.86C55.5896 1.86 56.9496 2.15333 57.843 2.74C58.7363 3.32667 59.183 4.08 59.183 5C59.183 5.46667 59.0163 5.95333 58.683 6.46C58.3496 6.95333 57.843 7.39333 57.163 7.78C56.483 8.15333 55.6163 8.40667 54.563 8.54V8.58C55.9363 8.64667 57.0363 8.86 57.863 9.22C58.6896 9.58 59.2896 10.02 59.663 10.54C60.0363 11.0467 60.223 11.5733 60.223 12.12C60.223 13.0133 59.983 13.7467 59.503 14.32C59.023 14.8933 58.3296 15.32 57.423 15.6C56.5296 15.8667 55.463 16 54.223 16C53.903 16 53.4296 15.9933 52.803 15.98C52.1896 15.9533 51.4496 15.94 50.583 15.94C49.9163 15.94 49.263 15.9467 48.623 15.96C47.9963 15.96 47.4896 15.9733 47.103 16V15.6C47.5163 15.5733 47.823 15.52 48.023 15.44C48.223 15.36 48.3563 15.2 48.423 14.96C48.4896 14.72 48.523 14.36 48.523 13.88V3.96C48.523 3.46667 48.4896 3.10667 48.423 2.88C48.3563 2.64 48.2163 2.48 48.003 2.4C47.803 2.30667 47.503 2.25333 47.103 2.24V1.84ZM53.663 2.24C53.2096 2.24 52.9163 2.35333 52.783 2.58C52.6496 2.80667 52.583 3.26667 52.583 3.96V13.88C52.583 14.3467 52.6163 14.7 52.683 14.94C52.7496 15.18 52.8763 15.34 53.063 15.42C53.2496 15.5 53.523 15.54 53.883 15.54C54.6296 15.54 55.1696 15.24 55.503 14.64C55.8496 14.0267 56.023 13.16 56.023 12.04C56.023 11.0133 55.7763 10.22 55.283 9.66C54.803 9.1 53.9963 8.82 52.863 8.82H51.403C51.403 8.82 51.403 8.76667 51.403 8.66C51.403 8.54 51.403 8.48 51.403 8.48H53.123C53.643 8.48 54.043 8.33333 54.323 8.04C54.603 7.73333 54.7963 7.33333 54.903 6.84C55.0096 6.33333 55.063 5.79333 55.063 5.22C55.063 4.23333 54.9563 3.49333 54.743 3C54.5296 2.49333 54.1696 2.24 53.663 2.24ZM63.745 16.14C63.1183 16.14 62.605 16.02 62.205 15.78C61.805 15.54 61.5117 15.2267 61.325 14.84C61.1517 14.4533 61.065 14.0467 61.065 13.62C61.065 13.06 61.1917 12.6067 61.445 12.26C61.6983 11.9 62.025 11.6133 62.425 11.4C62.8383 11.1733 63.2717 10.9867 63.725 10.84C64.1783 10.6933 64.605 10.5533 65.005 10.42C65.4183 10.2733 65.7517 10.1067 66.005 9.92C66.2583 9.72 66.385 9.46667 66.385 9.16V7.38C66.385 7.16667 66.345 6.93333 66.265 6.68C66.1983 6.42667 66.065 6.20667 65.865 6.02C65.665 5.83333 65.365 5.74 64.965 5.74C64.7517 5.74 64.545 5.77333 64.345 5.84C64.1583 5.89333 63.9917 5.97333 63.845 6.08C64.3117 6.25333 64.6517 6.5 64.865 6.82C65.0783 7.12667 65.185 7.46667 65.185 7.84C65.185 8.37333 64.9983 8.79333 64.625 9.1C64.2517 9.40667 63.8117 9.56 63.305 9.56C62.7717 9.56 62.3583 9.39333 62.065 9.06C61.7717 8.72667 61.625 8.31333 61.625 7.82C61.625 7.40667 61.725 7.06 61.925 6.78C62.1383 6.48667 62.4517 6.22 62.865 5.98C63.265 5.75333 63.745 5.59333 64.305 5.5C64.865 5.39333 65.4517 5.34 66.065 5.34C66.7183 5.34 67.325 5.40667 67.885 5.54C68.445 5.66 68.925 5.92667 69.325 6.34C69.605 6.63333 69.785 7 69.865 7.44C69.945 7.88 69.985 8.44667 69.985 9.14V14.5C69.985 14.8333 70.005 15.06 70.045 15.18C70.0983 15.3 70.185 15.36 70.305 15.36C70.4117 15.36 70.5117 15.3267 70.605 15.26C70.7117 15.1933 70.8117 15.1267 70.905 15.06L71.105 15.4C70.8117 15.6533 70.445 15.84 70.005 15.96C69.5783 16.08 69.125 16.14 68.645 16.14C68.0717 16.14 67.625 16.0733 67.305 15.94C66.9983 15.7933 66.7783 15.6067 66.645 15.38C66.525 15.14 66.4583 14.8867 66.445 14.62C66.165 15.06 65.8117 15.4267 65.385 15.72C64.9717 16 64.425 16.14 63.745 16.14ZM65.645 14.54C65.7917 14.54 65.9183 14.52 66.025 14.48C66.145 14.4267 66.265 14.3333 66.385 14.2V9.98C66.2917 10.1533 66.165 10.3267 66.005 10.5C65.8583 10.66 65.705 10.8267 65.545 11C65.385 11.1733 65.2317 11.36 65.085 11.56C64.9517 11.76 64.8383 11.9933 64.745 12.26C64.665 12.5133 64.625 12.8133 64.625 13.16C64.625 13.6667 64.7183 14.0267 64.905 14.24C65.105 14.44 65.3517 14.54 65.645 14.54ZM76.33 0.359999V14.14C76.33 14.7 76.41 15.08 76.57 15.28C76.7433 15.48 77.0367 15.58 77.45 15.58V16C77.1833 15.9867 76.7833 15.9733 76.25 15.96C75.7167 15.9333 75.17 15.92 74.61 15.92C74.05 15.92 73.4833 15.9333 72.91 15.96C72.3367 15.9733 71.9033 15.9867 71.61 16V15.58C72.0233 15.58 72.31 15.48 72.47 15.28C72.6433 15.08 72.73 14.7 72.73 14.14V2.76C72.73 2.16 72.65 1.72 72.49 1.44C72.33 1.14667 72.0367 0.999999 71.61 0.999999V0.579999C72.0367 0.62 72.45 0.64 72.85 0.64C73.5167 0.64 74.1367 0.62 74.71 0.579999C75.2967 0.526666 75.8367 0.453332 76.33 0.359999ZM82.97 5.62V6.02C82.49 6.15333 82.0033 6.38667 81.51 6.72C81.0167 7.05333 80.5167 7.47333 80.01 7.98L79.31 8.68L79.45 8.42L82.67 14.54C82.7767 14.74 82.89 14.94 83.01 15.14C83.13 15.3267 83.2833 15.4733 83.47 15.58V16C83.2433 15.9867 82.8967 15.9733 82.43 15.96C81.9767 15.9333 81.5167 15.92 81.05 15.92C80.5167 15.92 79.9767 15.9333 79.43 15.96C78.8967 15.9733 78.4967 15.9867 78.23 16V15.58C78.4967 15.58 78.67 15.52 78.75 15.4C78.8433 15.28 78.8367 15.1133 78.73 14.9L76.97 11.18C76.8767 10.9933 76.77 10.8733 76.65 10.82C76.53 10.7667 76.39 10.74 76.23 10.74V10.36C76.4167 10.36 76.59 10.3467 76.75 10.32C76.91 10.28 77.0567 10.1933 77.19 10.06L78.73 8.62C79.1967 8.19333 79.43 7.79333 79.43 7.42C79.4433 7.03333 79.2967 6.71333 78.99 6.46C78.6967 6.20667 78.31 6.06 77.83 6.02V5.62C78.2167 5.63333 78.63 5.64667 79.07 5.66C79.5233 5.67333 79.91 5.68 80.23 5.68C80.51 5.68 80.83 5.68 81.19 5.68C81.55 5.66667 81.89 5.66 82.21 5.66C82.5433 5.64667 82.7967 5.63333 82.97 5.62ZM88.7873 5.34C89.9607 5.34 90.8807 5.68667 91.5473 6.38C92.2273 7.06 92.5673 8.20667 92.5673 9.82H86.3073L86.2673 9.44H89.6473C89.6607 8.78667 89.634 8.18667 89.5673 7.64C89.5007 7.08 89.394 6.63333 89.2473 6.3C89.1007 5.96667 88.9007 5.8 88.6473 5.8C88.2873 5.8 87.994 6.08667 87.7673 6.66C87.5407 7.22 87.394 8.18667 87.3273 9.56L87.4073 9.72C87.394 9.85333 87.3873 9.98667 87.3873 10.12C87.3873 10.2533 87.3873 10.3933 87.3873 10.54C87.3873 11.4733 87.5007 12.2 87.7273 12.72C87.9673 13.24 88.2607 13.6 88.6073 13.8C88.9673 14 89.3273 14.1 89.6873 14.1C89.874 14.1 90.094 14.0733 90.3473 14.02C90.614 13.9667 90.9007 13.8467 91.2073 13.66C91.514 13.46 91.814 13.16 92.1073 12.76L92.4473 12.88C92.2873 13.4133 92.0273 13.9467 91.6673 14.48C91.3207 15 90.8673 15.4333 90.3073 15.78C89.7473 16.1133 89.0673 16.28 88.2673 16.28C87.414 16.28 86.634 16.1067 85.9273 15.76C85.234 15.4133 84.6807 14.84 84.2673 14.04C83.854 13.24 83.6473 12.1667 83.6473 10.82C83.6473 9.54 83.874 8.5 84.3273 7.7C84.7807 6.88667 85.394 6.29333 86.1673 5.92C86.954 5.53333 87.8273 5.34 88.7873 5.34Z" fill="#DA87A9"/>
</svg>
