<svg width="28" height="27" viewBox="0 0 28 27" fill="none" xmlns="http://www.w3.org/2000/svg">
<g clip-path="url(#clip0_319_140)">
<path fill-rule="evenodd" clip-rule="evenodd" d="M8.14856 23.2549C8.14856 22.0576 9.19091 21.087 10.4767 21.087C11.7625 21.087 12.8049 22.0576 12.8049 23.2549C12.8049 24.4522 11.7625 25.4228 10.4767 25.4228C9.19091 25.4228 8.14856 24.4522 8.14856 23.2549Z" fill="#5882CD"/>
<path fill-rule="evenodd" clip-rule="evenodd" d="M20.9534 23.2549C20.9534 22.0576 21.9957 21.087 23.2815 21.087C24.5673 21.087 25.6097 22.0576 25.6097 23.2549C25.6097 24.4522 24.5673 25.4228 23.2815 25.4228C21.9957 25.4228 20.9534 24.4522 20.9534 23.2549Z" fill="#5882CD"/>
<path fill-rule="evenodd" clip-rule="evenodd" d="M0 1.57601C0 0.977366 0.521173 0.492065 1.16407 0.492065H5.82036C6.37519 0.492065 6.85291 0.85669 6.9618 1.36328L7.93948 5.91181H26.7737C27.1206 5.91181 27.4494 6.05589 27.6706 6.3048C27.8917 6.5537 27.9821 6.88148 27.9171 7.19881L26.053 16.3013C25.8933 17.0498 25.4559 17.7222 24.8175 18.2008C24.1822 18.677 23.3881 18.9311 22.5729 18.9192H11.2783C10.4631 18.9311 9.66903 18.677 9.03376 18.2008C8.39558 17.7224 7.95834 17.0504 7.79851 16.3022C7.79844 16.3019 7.79857 16.3025 7.79851 16.3022L5.85388 7.25504C5.84599 7.22511 5.83943 7.19469 5.83428 7.16385L4.86619 2.65996H1.16407C0.521173 2.65996 0 2.17466 0 1.57601ZM8.40546 8.0797L10.0819 15.8789C10.1351 16.1284 10.2809 16.3526 10.4937 16.5121C10.7065 16.6716 10.9728 16.7564 11.2459 16.7515L11.2682 16.7513H22.583L22.6053 16.7515C22.8785 16.7564 23.1448 16.6716 23.3576 16.5121C23.5694 16.3533 23.7148 16.1305 23.7686 15.8824L25.3666 8.0797H8.40546Z" fill="#5882CD"/>
</g>
<defs>
<clipPath id="clip0_319_140">
<rect width="27.9377" height="26.0148" fill="white" transform="translate(0 0.492065)"/>
</clipPath>
</defs>
</svg>
