<svg width="28" height="19" viewBox="0 0 28 19" fill="none" xmlns="http://www.w3.org/2000/svg">
<path fill-rule="evenodd" clip-rule="evenodd" d="M0 1.57601C0 0.977366 0.521173 0.492065 1.16407 0.492065H5.82036C6.37519 0.492065 6.85291 0.85669 6.9618 1.36328L7.93948 5.91181H26.7737C27.1206 5.91181 27.4494 6.05589 27.6706 6.3048C27.8917 6.5537 27.9821 6.88148 27.9171 7.19881L26.053 16.3013C25.8933 17.0498 25.4559 17.7222 24.8175 18.2008C24.1822 18.677 23.3881 18.9311 22.5729 18.9192H11.2783C10.4631 18.9311 9.66903 18.677 9.03376 18.2008C8.39558 17.7224 7.95834 17.0504 7.79851 16.3022C7.79844 16.3019 7.79857 16.3025 7.79851 16.3022L5.85388 7.25504C5.84599 7.22511 5.83943 7.19469 5.83428 7.16385L4.86619 2.65996H1.16407C0.521173 2.65996 0 2.17466 0 1.57601ZM8.40546 8.0797L10.0819 15.8789C10.1351 16.1284 10.2809 16.3526 10.4937 16.5121C10.7065 16.6716 10.9728 16.7564 11.2459 16.7515L11.2682 16.7513H22.583L22.6053 16.7515C22.8785 16.7564 23.1448 16.6716 23.3576 16.5121C23.5694 16.3533 23.7148 16.1305 23.7686 15.8824L25.3666 8.0797H8.40546Z" fill="#5882CD"/>
</svg>
