<svg width="27" height="27" viewBox="0 0 27 27" fill="none" xmlns="http://www.w3.org/2000/svg">
<path fill-rule="evenodd" clip-rule="evenodd" d="M5.02252 17.3975C6.07742 16.3426 7.50816 15.75 9 15.75H18C19.4918 15.75 20.9226 16.3426 21.9775 17.3975C23.0324 18.4524 23.625 19.8832 23.625 21.375V23.625C23.625 24.2463 23.1213 24.75 22.5 24.75C21.8787 24.75 21.375 24.2463 21.375 23.625V21.375C21.375 20.4799 21.0194 19.6215 20.3865 18.9885C19.7535 18.3556 18.8951 18 18 18H9C8.10489 18 7.24645 18.3556 6.61351 18.9885C5.98058 19.6215 5.625 20.4799 5.625 21.375V23.625C5.625 24.2463 5.12132 24.75 4.5 24.75C3.87868 24.75 3.375 24.2463 3.375 23.625V21.375C3.375 19.8832 3.96763 18.4524 5.02252 17.3975Z" fill="#5882CD"/>
<path fill-rule="evenodd" clip-rule="evenodd" d="M13.5 4.5C11.636 4.5 10.125 6.01104 10.125 7.875C10.125 9.73896 11.636 11.25 13.5 11.25C15.364 11.25 16.875 9.73896 16.875 7.875C16.875 6.01104 15.364 4.5 13.5 4.5ZM7.875 7.875C7.875 4.7684 10.3934 2.25 13.5 2.25C16.6066 2.25 19.125 4.7684 19.125 7.875C19.125 10.9816 16.6066 13.5 13.5 13.5C10.3934 13.5 7.875 10.9816 7.875 7.875Z" fill="#5882CD"/>
</svg>
