<svg width="21" height="10" viewBox="0 0 21 10" fill="none" xmlns="http://www.w3.org/2000/svg">
<path fill-rule="evenodd" clip-rule="evenodd" d="M2.02252 2.39753C3.07742 1.34263 4.50816 0.75 6 0.75H15C16.4918 0.75 17.9226 1.34263 18.9775 2.39753C20.0324 3.45242 20.625 4.88316 20.625 6.375V8.625C20.625 9.24632 20.1213 9.75 19.5 9.75C18.8787 9.75 18.375 9.24632 18.375 8.625V6.375C18.375 5.4799 18.0194 4.62145 17.3865 3.98852C16.7535 3.35558 15.8951 3 15 3H6C5.10489 3 4.24645 3.35558 3.61351 3.98852C2.98058 4.62145 2.625 5.47989 2.625 6.375V8.625C2.625 9.24632 2.12132 9.75 1.5 9.75C0.87868 9.75 0.375 9.24632 0.375 8.625V6.375C0.375 4.88316 0.967632 3.45242 2.02252 2.39753Z" fill="#5882CD"/>
</svg>
