<svg width="65" height="65" viewBox="0 0 65 65" fill="none" xmlns="http://www.w3.org/2000/svg">
<path d="M0 31.2C0 16.4922 3.22858e-07 9.13827 4.56913 4.56913C9.13827 0 16.4922 0 31.2 0H33.8C48.5078 0 55.8617 0 60.4309 4.56913C65 9.13827 65 16.4922 65 31.2V33.8C65 48.5078 65 55.8617 60.4309 60.4309C55.8617 65 48.5078 65 33.8 65H31.2C16.4922 65 9.13827 65 4.56913 60.4309C3.22858e-07 55.8617 0 48.5078 0 33.8V31.2Z" fill="white"/>
<path d="M34.7009 46.9896C20.0625 46.9896 11.1813 36.8145 10.8334 19.9062H18.2473C18.4784 32.3266 24.1188 37.5898 28.4425 38.6721V19.9062H35.5474V30.6251C39.7179 30.162 44.0832 25.2865 45.5504 19.9062H52.5437C51.4244 26.5223 46.6723 31.3978 43.3146 33.4089C46.6749 35.0349 52.0814 39.2913 54.1667 46.9896H46.4801C44.8571 41.8435 40.8813 37.8577 35.55 37.3166V46.9896H34.7009Z" fill="#5882CD"/>
</svg>
